<svg xmlns="http://www.w3.org/2000/svg" xmlns:xlink="http://www.w3.org/1999/xlink" version="1.1" viewBox="146.06 36 57.06 36">
<path transform="matrix(1,0,0,-1,0,792)" d="M146.056 756H203.113V720H146.056Z" fill="#009ada"/>
<path transform="matrix(1,0,0,-1,156.3595,55.812074)" d="M0 0C.165 .095 .36 .162 .585 .204 .81 .245 1.022 .266 1.224 .266 1.424 .266 1.634 .245 1.853 .204 2.072 .162 2.264 .095 2.429 0V-.727C2.429-.928 2.492-1.138 2.616-1.357 2.74-1.575 2.926-1.777 3.174-1.96 3.423-2.143 3.73-2.294 4.096-2.412 4.463-2.53 4.888-2.589 5.373-2.589 6.094-2.589 6.627-2.462 6.969-2.208 7.312-1.953 7.484-1.62 7.484-1.206 7.484-.473 6.916 .059 5.781 .39L3.458 1.064C3.032 1.182 2.625 1.336 2.234 1.525 1.844 1.714 1.501 1.95 1.206 2.234 .91 2.518 .674 2.858 .497 3.254 .319 3.65 .23 4.126 .23 4.681 .23 5.356 .364 5.938 .63 6.429 .895 6.92 1.238 7.327 1.658 7.653 2.078 7.977 2.545 8.217 3.059 8.37 3.573 8.524 4.079 8.601 4.576 8.601 5.32 8.601 5.938 8.492 6.429 8.273 6.919 8.054 7.295 7.773 7.555 7.43V8.14C7.72 8.235 7.909 8.302 8.122 8.344 8.335 8.386 8.536 8.406 8.725 8.406 8.914 8.406 9.118 8.386 9.337 8.344 9.556 8.302 9.747 8.235 9.913 8.14V4.008C9.747 3.913 9.556 3.846 9.337 3.804 9.118 3.762 8.908 3.742 8.708 3.742 8.506 3.742 8.294 3.762 8.069 3.804 7.844 3.846 7.649 3.913 7.484 4.008V4.434C7.484 4.67 7.433 4.898 7.333 5.116 7.232 5.335 7.081 5.53 6.881 5.701 6.68 5.873 6.42 6.012 6.101 6.118 5.781 6.224 5.409 6.278 4.983 6.278 4.604 6.278 4.283 6.219 4.017 6.101 3.751 5.982 3.54 5.828 3.387 5.64 3.221 5.438 3.139 5.202 3.139 4.93 3.139 4.681 3.219 4.452 3.378 4.239 3.538 4.025 3.86 3.854 4.345 3.724L6.544 3.103C7.088 2.949 7.599 2.769 8.078 2.563 8.557 2.356 8.976 2.096 9.337 1.782 9.698 1.469 9.981 1.087 10.188 .638 10.395 .189 10.498-.361 10.498-1.01 10.498-1.708 10.359-2.306 10.082-2.802 9.804-3.299 9.437-3.706 8.982-4.025 8.527-4.345 8.016-4.579 7.448-4.726 6.881-4.874 6.313-4.947 5.746-4.947 5.025-4.947 4.354-4.832 3.733-4.602 3.112-4.372 2.648-4.049 2.341-3.635V-4.469C2.175-4.564 1.983-4.632 1.764-4.673 1.545-4.714 1.342-4.735 1.153-4.735 .963-4.735 .765-4.714 .558-4.673 .351-4.632 .165-4.564 0-4.469Z" fill="#ffffff"/>
<path transform="matrix(1,0,0,-1,175.8542,54.765687)" d="M0 0-1.312 4.753-2.713 0ZM-6.65-3.512-3.014 7.395H.603L4.097-3.512H5.09C5.149-3.7 5.193-3.887 5.223-4.07 5.252-4.253 5.267-4.428 5.267-4.593 5.267-4.759 5.252-4.936 5.223-5.125 5.193-5.315 5.149-5.504 5.09-5.693H-.071C-.13-5.527-.174-5.353-.204-5.169-.234-4.986-.248-4.818-.248-4.664-.248-4.51-.234-4.345-.204-4.168-.174-3.99-.13-3.819-.071-3.653H.993L.515-1.987H-3.281L-3.795-3.653H-2.713C-2.654-3.819-2.61-3.99-2.58-4.168-2.551-4.345-2.536-4.51-2.536-4.664-2.536-4.818-2.551-4.986-2.58-5.169-2.61-5.353-2.654-5.527-2.713-5.693H-7.732C-7.791-5.504-7.835-5.315-7.865-5.125-7.895-4.936-7.909-4.759-7.909-4.593-7.909-4.428-7.895-4.253-7.865-4.07-7.835-3.887-7.791-3.7-7.732-3.512Z" fill="#ffffff"/>
<path transform="matrix(1,0,0,-1,185.1572,58.27722)" d="M0 0V8.513H-1.933V6.437C-2.099 6.343-2.297 6.275-2.527 6.234-2.758 6.192-2.967 6.171-3.156 6.171-3.346 6.171-3.549 6.192-3.768 6.234-3.987 6.275-4.179 6.343-4.345 6.437V10.747H7.342V6.437C7.176 6.343 6.978 6.275 6.748 6.234 6.517 6.192 6.308 6.171 6.119 6.171 5.929 6.171 5.725 6.192 5.507 6.234 5.288 6.275 5.096 6.343 4.93 6.437V8.513H2.997V0H4.168C4.227-.189 4.271-.375 4.301-.558 4.33-.742 4.345-.916 4.345-1.082 4.345-1.248 4.33-1.424 4.301-1.613 4.271-1.803 4.227-1.992 4.168-2.181H-1.17C-1.23-1.992-1.274-1.803-1.303-1.613-1.333-1.424-1.347-1.248-1.347-1.082-1.347-.916-1.333-.742-1.303-.558-1.274-.375-1.23-.189-1.17 0Z" fill="#ffffff"/>
<path transform="matrix(1,0,0,-1,195.0741,48.565919)" d="M0 0C.07 0 .124 .019 .16 .058 .197 .097 .215 .148 .215 .212 .215 .27 .198 .317 .162 .354 .127 .392 .076 .41 .01 .41H-.225V0ZM-.49-.615V.421H-.593C-.602 .451-.607 .475-.609 .49-.612 .505-.612 .521-.612 .537-.612 .548-.612 .561-.609 .576-.607 .592-.602 .614-.593 .646H.053C.121 .646 .184 .634 .242 .612 .299 .591 .348 .559 .389 .52 .43 .48 .461 .434 .483 .381 .505 .328 .516 .272 .516 .212 .516 .141 .5 .066 .467-.011 .433-.09 .369-.152 .274-.198L.463-.615H.569C.58-.647 .586-.669 .587-.686 .589-.701 .589-.716 .589-.731 .589-.743 .588-.755 .586-.769 .584-.784 .577-.805 .566-.834H.252L-.01-.235H-.225V-.615H-.099C-.091-.647-.085-.669-.083-.686-.081-.701-.08-.716-.08-.731-.08-.743-.081-.756-.083-.771-.085-.786-.092-.809-.103-.838H-.593C-.602-.809-.607-.786-.609-.771-.612-.756-.612-.743-.612-.731-.612-.716-.612-.701-.609-.686-.607-.669-.602-.647-.593-.615ZM-.037-1.083C.096-1.083 .22-1.058 .336-1.007 .452-.958 .553-.89 .639-.802 .725-.716 .792-.612 .841-.492 .889-.371 .913-.239 .913-.096 .913 .043 .889 .172 .841 .292 .792 .41 .725 .514 .639 .601 .553 .688 .452 .757 .336 .806 .22 .856 .096 .881-.037 .881-.171 .881-.297 .856-.414 .806-.531 .757-.632 .688-.718 .601-.805 .514-.872 .41-.921 .292-.969 .172-.993 .043-.993-.096-.993-.239-.969-.371-.921-.492-.872-.612-.805-.716-.718-.802-.632-.89-.531-.958-.414-1.007-.297-1.058-.171-1.083-.037-1.083M-1.321-.096C-1.321 .085-1.287 .253-1.218 .407-1.15 .562-1.057 .695-.941 .808-.823 .92-.687 1.008-.531 1.071-.376 1.134-.211 1.165-.037 1.165 .136 1.165 .299 1.134 .453 1.071 .608 1.008 .744 .92 .861 .808 .978 .695 1.07 .562 1.139 .407 1.207 .253 1.242 .085 1.242-.096 1.242-.279 1.207-.448 1.139-.604 1.07-.76 .978-.894 .861-1.007 .744-1.119 .608-1.207 .453-1.271 .299-1.335 .136-1.367-.037-1.367-.211-1.367-.376-1.335-.531-1.271-.687-1.207-.823-1.119-.941-1.007-1.057-.894-1.15-.76-1.218-.604-1.287-.448-1.321-.279-1.321-.096" fill="#ffffff"/>
</svg>